#!OML:ASF H:\Male1\Project 1\Capture day 1\Session 1\Male1.ASF
:FULLY-SPECIFIED
:DEGREES
191
root 20.4678 15.3631 -2.4474 -175.261 52.5501 -172.072
lowerback 14.617 -1.42 2.46525
upperback 9.68677 -0.677303 -0.127765
thorax 2.00655 0.161437 -1.42137
lowerneck -0.397817 2.81058 4.56994
upperneck -0.949384 3.83424 2.09228
head -0.179038 1.93114 -0.106063
rclavicle 7.17613e-014 -2.3059e-014
rhumerus -36.5636 -29.0014 1.8582
rradius 28.4207
rwrist -28.1246
rhand -32.596 -12.1026
rfingers 7.12502
rthumb -5.82418 -42.0026
lclavicle 7.17613e-014 -2.3059e-014
lhumerus -40.666 30.1104 -1.47214
lradius 26.2287
lwrist 7.28153
lhand -26.2426 35.7477
lfingers 7.12502
lthumb 0.31147 65.7272
rfemur 0.253881 12.0991 27.3684
rtibia 55.8871
rfoot -8.59015 -22.6437
rtoes -27.2681
lfemur -23.3868 -11.9899 -6.36327
ltibia 36.6485
lfoot -8.19736 17.6306
ltoes -14.9207
192
root 20.7485 15.2206 -2.84838 -177.67 52.6088 -174.227
lowerback 14.8672 -1.46156 1.38398
upperback 9.6901 -0.844319 -0.448723
thorax 1.882 0.0400061 -1.12614
lowerneck -0.414722 2.73588 4.43277
upperneck -0.972888 3.74137 2.37708
head -0.192373 1.88572 0.00188956
rclavicle 2.84262e-014 1.03368e-014
rhumerus -37.4647 -28.9152 3.40257
rradius 28.3069
rwrist -27.4535
rhand -31.663 -13.0558
rfingers 7.12502
rthumb -4.92332 -42.9786
lclavicle 2.84262e-014 1.03368e-014
lhumerus -40.2807 30.2051 -3.08847
lradius 26.5484
lwrist 7.54467
lhand -26.3395 36.0212
lfingers 7.12502
lthumb 0.217832 66.0008
rfemur -1.57913 10.9945 26.3104
rtibia 61.2839
rfoot -10.1108 -22.9535
rtoes -26.9185
lfemur -21.488 -10.6807 -8.51365
ltibia 37.7279
lfoot -10.0209 15.8126
ltoes -19.7209
193
root 21.0212 15.0756 -3.23103 -180.096 52.6732 -176.557
lowerback 15.1682 -1.46598 0.173393
upperback 9.68779 -0.9802 -0.80274
thorax 1.73577 -0.0677081 -0.795106
lowerneck -0.40952 2.63706 4.35204
upperneck -1.13642 3.62552 2.67956
head -0.250699 1.82597 0.103846
rclavicle 1.96797e-014 2.78299e-015
rhumerus -38.4962 -29.0138 5.01022
rradius 28.1274
rwrist -26.7487
rhand -30.808 -14.2486
rfingers 7.12502
rthumb -4.09776 -44.1889
lclavicle 1.96797e-014 2.78299e-015
lhumerus -39.6114 30.4705 -4.48309
lradius 26.8628
lwrist 7.94668
lhand -26.5557 36.337
lfingers 7.12502
lthumb 0.0090165 66.3168
rfemur -4.0855 9.70978 25.0597
rtibia 66.524
rfoot -11.3296 -22.9238
rtoes -27.3763
lfemur -19.7984 -9.01879 -10.8505
ltibia 39.2497
lfoot -12.628 14.3258
ltoes -22.7764
194
root 21.2872 14.9432 -3.59628 -182.413 52.7418 -178.996
lowerback 15.428 -1.43553 -1.09126
upperback 9.68029 -1.083 -1.17937
thorax 1.61548 -0.157971 -0.461468
lowerneck -0.434538 2.50693 4.31579
upperneck -1.39229 3.47307 2.99531
head -0.33158 1.74628 0.202202
rclavicle 4.33351e-014 -2.14687e-014
rhumerus -39.6898 -29.4831 6.69892
rradius 27.8272
rwrist -25.8424
rhand -30.0067 -15.5449
rfingers 7.12502
rthumb -3.3239 -45.4988
lclavicle 4.33351e-014 -2.14687e-014
lhumerus -38.6673 30.9096 -5.51976
lradius 27.1487
lwrist 8.40067
lhand -26.9045 36.6159
lfingers 7.12502
lthumb -0.327869 66.5954
rfemur -7.24148 8.31653 23.7209
rtibia 71.3074
rfoot -12.3835 -22.6653
rtoes -28.1137
lfemur -18.3185 -7.37558 -13.2295
ltibia 40.8309
lfoot -15.4745 13.3776
ltoes -24.0693
195
root 21.55 14.8382 -3.94708 -184.293 52.8593 -181.155
lowerback 15.5914 -1.40426 -2.16059
upperback 9.65741 -1.16911 -1.51028
thorax 1.53166 -0.23287 -0.193216
lowerneck -0.511115 2.38006 4.23837
upperneck -1.63977 3.32619 3.38238
head -0.403384 1.67044 0.329875
rclavicle -5.94366e-014 -1.19271e-014
rhumerus -40.9429 -30.1722 8.2995
rradius 27.4294
rwrist -24.908
rhand -29.2628 -16.7265
rfingers 7.12502
rthumb -2.60547 -46.6903
lclavicle -5.94366e-014 -1.19271e-014
lhumerus -37.6002 31.3093 -6.10319
lradius 27.4684
lwrist 8.93862
lhand -27.3001 36.7881
lfingers 7.12502
lthumb -0.709911 66.7666
rfemur -10.9324 6.96344 22.6956
rtibia 75.32
rfoot -13.1962 -22.3489
rtoes -29.1015
lfemur -16.9834 -5.96681 -15.3516
ltibia 42.1975
lfoot -18.0384 12.8081
ltoes -23.5425
196
root 21.8135 14.7653 -4.28616 -185.546 53.1049 -182.712
lowerback 15.6618 -1.40144 -2.83704
upperback 9.6237 -1.2514 -1.73821
thorax 1.47814 -0.294485 -0.0397723
lowerneck -0.62697 2.27698 4.12862
upperneck -1.80573 3.20582 3.76475
head -0.444123 1.61013 0.463206
rclavicle 4.09496e-014 1.15295e-014
rhumerus -42.1526 -31.0321 9.70703
rradius 26.9589
rwrist -23.9151
rhand -28.4623 -17.5852
rfingers 7.12502
rthumb -1.83244 -47.557
lclavicle 4.09496e-014 1.15295e-014
lhumerus -36.4794 31.5341 -6.22202
lradius 27.7914
lwrist 9.50237
lhand -27.6146 36.8265
lfingers 7.12502
lthumb -1.01369 66.8039
rfemur -14.9313 5.81294 22.3404
rtibia 78.3101
rfoot -13.7463 -22.0784
rtoes -30.1466
lfemur -15.5806 -4.81019 -17.0206
ltibia 43.1363
lfoot -20.2564 12.6112
ltoes -22.5328
